<svg xmlns="http://www.w3.org/2000/svg" width="1024" height="1024"><path fill="#080836" fill-rule="evenodd" d="M246 151.631c-19.043 2.832-33.093 9.693-46.1 22.511-8.103 7.985-13.905 17.549-18.163 29.937L178.5 213.5v573l2.24 8.5c7.258 27.544 26.417 47.467 52.942 55.052 14.336 4.1 19.632 4.204 186.669 3.682 150.283-.471 160.457-.611 165.149-2.282 6.477-2.306 10.697-5.085 17.662-11.631 6.966-6.546 23.799-29.137 23.943-32.132.316-6.542-.161-10.896-1.469-13.425-1.314-2.542-10.241-11.067-17.427-16.642-1.49-1.157-9.909-8.198-18.709-15.648-8.8-7.45-27.25-22.961-41-34.47s-28.15-23.588-32-26.843c-3.85-3.255-8.35-6.758-10-7.786-4.018-2.502-11.992-2.482-16.128.04-1.72 1.049-9.281 9.259-16.801 18.246-25.984 31.048-32.089 38.277-36.571 43.303-2.475 2.774-6.285 7.293-8.467 10.04-2.183 2.748-6.698 8.146-10.035 11.996-3.338 3.85-10.301 12.073-15.475 18.274l-9.406 11.274-75.559-.274c-68.517-.248-75.843-.43-78.619-1.952-4.19-2.297-9.182-7.52-11.777-12.322l-2.162-4-.257-284.299-.257-284.298 2.127-4.943c1.169-2.719 3.922-6.566 6.117-8.549 8.159-7.371-7.036-6.754 176.27-7.163 102.879-.23 165.363-.728 165.965-1.323.612-.606-59.46-.857-164.5-.69-182.98.293-169.112-.229-177.725 6.693-2.236 1.796-5.484 5.929-7.219 9.183l-3.154 5.918.032 282.423c.017 155.332.336 283.688.709 285.235 1.301 5.398 5.342 12.114 9.356 15.55 8.093 6.927 5.967 6.763 87.523 6.763h73.258l3.878-4.273c2.132-2.35 9.502-10.974 16.377-19.163 6.875-8.19 18.824-22.354 26.553-31.477A8650.378 8650.378 0 0 0 469.66 718.5c21.67-25.91 21.218-25.5 28.166-25.5 3.793 0 6.565.581 8.201 1.72 2.495 1.735 72.012 59.926 109.473 91.636 8.064 6.826 9.393 9.137 9.455 16.444.057 6.668-1.211 9.106-11.61 22.329-12.377 15.738-17.637 20.087-29.748 24.592-3.617 1.345-23.666 1.504-171.086 1.359-181.813-.179-172.311.112-186.672-5.724-21.352-8.676-38.209-28.453-43.507-51.044-1.754-7.477-1.832-20.06-1.832-293.812 0-272.823.083-286.299 1.808-292.5 3.399-12.22 9.211-22.34 18.075-31.478 8.876-9.15 15.644-13.849 25.617-17.786 13.806-5.451 5.699-5.236 197.539-5.236h178.039l5.535 3.354c4.99 3.025 27.887 24.108 27.887 25.679 0 .355 25.938 26.593 57.641 58.306 47.244 47.261 58.071 58.591 60.03 62.818l2.39 5.157-.28 58.843c-.271 56.775-.351 58.962-2.281 62.238-3.873 6.575-6.364 7.605-18.401 7.605-10.282 0-10.919-.125-14.489-2.848-2.054-1.567-4.269-4.042-4.922-5.5-.835-1.865-1.336-16.16-1.688-48.152l-.5-45.5-55.5-.503c-55.35-.503-55.514-.51-60.5-2.812-6.402-2.956-11.015-7.389-14.24-13.685-5.151-10.057-5.235-11.143-5.248-67.95-.008-36.433-.334-52.628-1.045-51.917-.693.693-.94 18.971-.75 55.45.282 54.302.288 54.429 2.606 60.169 3.648 9.036 9.006 15.046 16.861 18.914l6.77 3.334 55.023.5 55.023.5V382c0 44.05.022 44.542 2.219 48.649 1.22 2.282 3.92 5.207 6 6.5 3.343 2.079 4.998 2.351 14.281 2.351 9.218 0 10.952-.281 14.2-2.3 2.034-1.266 4.734-3.966 6-6l2.3-3.7.285-59.5c.26-54.159.132-59.903-1.425-63.993-1.418-3.724-13.538-16.407-70.717-74-37.953-38.229-70.386-70.554-72.074-71.835-1.688-1.28-4.869-3.305-7.069-4.5l-4-2.172-176.5-.121c-97.075-.066-177.625.047-179 .252m54.609 147.605c-2.346.621-5.785 2.863-8.66 5.647-8.901 8.617-10.04 21.169-2.824 31.13 2.021 2.79 4.885 5.038 8.694 6.824l5.681 2.663h204.141l5.896-3.015c7.754-3.966 11.467-9.665 12.194-18.718.412-5.136.079-7.337-1.753-11.597-2.742-6.373-8.486-11.557-14.479-13.066-5.883-1.481-203.263-1.356-208.89.132m-2.109 3.132c-8.291 3.894-11.5 9.375-11.5 19.64 0 9.179 3.67 15.182 12 19.625 3.352 1.788 7.863 1.867 106.5 1.867h103l4-2.144c5.009-2.684 6.858-4.72 9.423-10.374 5.397-11.897-.835-26.642-12.646-29.922-2.521-.7-37.355-1.047-104.777-1.045l-101 .005-5 2.348m515.072 45.969c-1.493 1.493-2.925 4.92-3.963 9.485-4.718 20.743-12.761 30.399-31.005 37.225-6.538 2.446-9.604 5.858-9.604 10.687 0 4.345 3.99 8.349 10.156 10.191 14.88 4.446 27.52 18.164 29.372 31.878 1.024 7.587 2.415 10.971 5.615 13.664 3.887 3.271 7.074 3.205 10.912-.225 2.475-2.212 3.564-4.596 5.498-12.041 2.861-11.016 5.814-16.4 12.347-22.511 4.419-4.133 13.611-9.69 16.029-9.69.548 0 3.531-.949 6.63-2.108 4.607-1.724 5.894-2.732 7.066-5.537 1.275-3.052 1.247-3.822-.253-6.984-1.102-2.323-2.93-4.086-5.279-5.092-12.241-5.24-22.156-10.638-25.492-13.878-4.77-4.633-8.921-13.248-11.099-23.037-2.099-9.435-5.926-14.364-11.151-14.364-2.274 0-4.235.793-5.779 2.337m1.498 1.439c-1.921 1.921-3.005 4.303-3.519 7.733-1.01 6.732-4.828 16.58-8.497 21.912-5.517 8.019-12.783 13.261-24.417 17.613-6.023 2.254-7.168 3.249-8.125 7.063-.904 3.603 3.135 8.182 8.679 9.84 15.405 4.606 28.098 17.771 30.783 31.925 2.088 11.003 2.944 13.044 6.172 14.714 6.137 3.173 9.941-.114 11.768-10.169 3.265-17.964 16.019-31.24 35.37-36.816 4.912-1.415 6.034-2.19 7.439-5.137 1.575-3.303 1.56-3.598-.328-6.127-1.091-1.461-3.539-3.195-5.439-3.853-22.216-7.691-33.016-19.283-36.974-39.686-1.173-6.046-5.294-11.788-8.46-11.788-.922 0-2.925 1.249-4.452 2.776M303.5 410.968c-5.581 1.45-7.989 2.807-11.838 6.675-4.961 4.985-6.662 9.205-6.662 16.529 0 6.822 1.637 10.676 6.843 16.108 6.945 7.248-3.072 6.828 159.157 6.678 162.881-.15 151.737.363 159.43-7.341 11.131-11.148 7.541-29.528-7.183-36.779L598.5 410.5l-146-.156c-80.3-.086-147.35.195-149 .624m-.506 1.956c-7.256 2.236-12.923 7.185-14.858 12.975-2.438 7.295-.785 17.458 3.652 22.456.942 1.061 3.962 2.985 6.712 4.277l5 2.348 145.807.01c103.076.007 147.092-.314 150.192-1.094 9.672-2.435 16.354-12.045 15.193-21.849-1.004-8.474-4.864-13.888-12.692-17.798-3.28-1.639-12.725-1.76-150-1.923-80.575-.096-147.628.174-149.006.598m439.695 61.326c-2.492 1.788-9.328 6.763-15.192 11.056-13.314 9.747-24.93 16.688-53.465 31.942-40.308 21.548-82.519 41.177-109.418 50.882-5.988 2.16-12.174 4.844-13.746 5.964-5.184 3.691-7.457 9.336-10.837 26.906-1.745 9.075-4.52 22.575-6.167 30-1.646 7.425-3.13 14.4-3.298 15.5-.167 1.1-1.239 4.925-2.381 8.5-6.006 18.795-8.027 26.247-7.495 27.635.324.845 3.185 3.635 6.358 6.2 6.368 5.15 43.407 36.189 54.48 45.656 3.866 3.305 9.46 8.034 12.432 10.509 2.972 2.475 9.26 7.81 13.972 11.856 4.712 4.045 9.677 8.095 11.032 9 1.355.904 4.434 3.557 6.842 5.894 2.408 2.337 4.794 4.25 5.304 4.25.509 0 5.531-2.314 11.158-5.142 13.431-6.75 39.633-18.94 52.41-24.383 16.783-7.151 34.199-16.173 38.016-19.694 3.709-3.422 5.274-8.109 9.367-28.053 3.969-19.342 6.497-29.344 17.874-70.728 13.131-47.763 21.6-74.042 30.779-95.5 7.739-18.093 7.452-23.018-1.704-29.25-3.284-2.235-10.298-3.064-12.564-1.485-.579.404-3.589 3.885-6.688 7.735l-11.269 14c-3.1 3.85-7.29 9.008-9.312 11.463-2.022 2.454-11.223 13.929-20.446 25.5-9.223 11.57-18.53 23.082-20.684 25.582-2.153 2.499-5.952 7.224-8.442 10.5-2.489 3.275-5.147 6.63-5.906 7.455-2.383 2.59-10.657 13.006-12.193 15.35-1.317 2.01-1.253 2.807.616 7.696 4.105 10.74 1.328 24.627-6.415 32.08-6.561 6.316-18.845 8.835-29.01 5.948-12.93-3.672-21.658-19.309-18.708-33.519 2.254-10.86 11.846-20.349 22.343-22.103 2.292-.383 4.505-1.204 4.918-1.824.535-.804 1.008-.727 1.649.268.495.767 1.565 1.14 2.378.828.814-.312 1.872-.211 2.351.225.48.436 2.053 1.07 3.496 1.409 2.428.571 3.746-.784 17.642-18.121 8.26-10.305 27.31-34.037 42.334-52.737 15.023-18.7 30.372-37.821 34.108-42.491 7.537-9.421 8.369-12.599 4.965-18.947-4.038-7.528-13.873-9.273-21.484-3.812m-.189 2.183c-2.75 1.959-9.275 6.702-14.5 10.54-30.393 22.322-111.737 63.867-160.519 81.982-14.43 5.358-19.269 8.514-21.358 13.926-.555 1.441-1.958 7.794-3.117 14.119-4.446 24.265-13.787 63.049-18.897 78.454-1.086 3.275-1.764 6.294-1.507 6.711.257.416 5.805 5.229 12.328 10.695s13.145 11.049 14.715 12.406c1.57 1.358 7.355 6.226 12.855 10.817 5.5 4.592 18.296 15.339 28.436 23.883 43.5 36.653 40.024 34.004 42.94 32.728 1.443-.631 8.474-4.026 15.624-7.544 14.774-7.269 22.713-10.966 40.5-18.859 24.243-10.758 37.535-17.459 40.728-20.532 3.745-3.606 5.341-8.083 8.291-23.259 2.568-13.21 8.596-37.824 13.96-57 2.154-7.7 6.007-21.65 8.563-31 10.139-37.087 17.912-60.72 27.348-83.145 2.999-7.128 5.11-13.655 5.11-15.8 0-7.583-5.054-12.555-12.763-12.555-3.524 0-4.294.536-8.8 6.117-2.715 3.365-6.09 7.527-7.5 9.25-1.41 1.723-7.476 9.208-13.481 16.633l-20.937 25.885c-5.51 6.812-12.044 15.018-14.519 18.236-2.475 3.219-10.8 13.59-18.5 23.046-7.7 9.457-14.333 17.741-14.741 18.408-.407.667.222 3.388 1.398 6.046 3.075 6.952 2.924 16.339-.38 23.554-9.001 19.663-34.262 24.47-49.341 9.391-10.848-10.848-12.427-26.363-3.984-39.16 6.886-10.437 18.329-15.094 32.048-13.044l5 .747 6.703-8.305 18.003-22.304c6.215-7.7 14.664-18.275 18.775-23.5 4.111-5.225 7.734-9.725 8.05-10 .789-.686 39.782-49.281 43.296-53.956 2.592-3.451 2.738-4.089 1.761-7.718-1.571-5.832-5.007-8.58-11.33-9.058-4.74-.358-5.751-.046-10.258 3.165m125.661 4.317c-1.195 1.014-2.744 4.484-3.685 8.25-2.982 11.933-9.955 20.323-19.774 23.789-6.141 2.168-8.702 4.544-8.702 8.076 0 3.539 2.944 6.284 10.125 9.441 10.522 4.627 16.54 12.34 18.374 23.55 1.167 7.133 7.453 11.307 11.505 7.64 1.986-1.797 5.325-9.394 4.859-11.056-.48-1.714 4.905-10.889 8.298-14.137 1.836-1.759 6.908-4.822 11.271-6.808 8.299-3.778 10.483-5.648 10.536-9.022.062-3.918-2.832-6.348-10.155-8.529-5.907-1.759-7.994-2.999-12.255-7.282-4.405-4.428-5.528-6.403-7.901-13.894-3.549-11.198-7.436-14.315-12.496-10.018m.621 2c-.841.962-1.846 3.55-2.234 5.75-1.9 10.767-8.403 19.659-17.703 24.207-3.49 1.706-7.143 3.36-8.118 3.675-2.277.736-3.109 2.959-2.306 6.159.49 1.953 2.296 3.294 7.858 5.837 3.971 1.816 8.657 4.516 10.413 6.002 3.888 3.289 8.963 13.138 9.863 19.141.702 4.678 1.607 5.863 5.138 6.726 3.058.747 5.189-1.964 6.72-8.548 2.697-11.604 10.61-20.252 22.494-24.585 4.27-1.557 6.542-3.005 7.29-4.647 1.705-3.741-1.018-6.985-7.085-8.44-6.599-1.583-13.329-5.963-17.045-11.094-1.659-2.289-4.152-7.888-5.541-12.441-2.376-7.791-3.622-9.492-6.953-9.492-.695 0-1.951.788-2.791 1.75M302.72 522.482c-21.964 6.094-23.723 34.827-2.72 44.42 3.134 1.431 14.167 1.598 105.5 1.598h102l5.681-2.663c17.282-8.101 17.729-32.318.772-41.837l-4.453-2.5-101-.172c-81.246-.139-101.935.087-105.78 1.154m2.033 1.552c-8.692 1.463-14.652 6.822-16.889 15.186-2.593 9.694 2.145 20.639 10.773 24.886l4.863 2.394h205l4-2.153c7.852-4.225 11.5-10.524 11.5-19.855 0-9.52-5.293-16.891-14.285-19.894-4.263-1.424-15.436-1.585-102.5-1.48-53.743.064-99.851.477-102.462.916"/><path fill="#2b2b73" fill-rule="evenodd" d="M248 153.654c-20.08 2.008-33.75 8.573-47.617 22.868-8.864 9.138-14.676 19.258-18.075 31.478-1.725 6.201-1.808 19.677-1.808 292.5 0 273.752.078 286.335 1.832 293.812 5.298 22.591 22.155 42.368 43.507 51.044 14.361 5.836 4.859 5.545 186.672 5.724 147.42.145 167.469-.014 171.086-1.359 12.111-4.505 17.371-8.854 29.748-24.592 10.399-13.223 11.667-15.661 11.61-22.329-.062-7.307-1.391-9.618-9.455-16.444-37.461-31.71-106.978-89.901-109.473-91.636-1.636-1.139-4.408-1.72-8.201-1.72-6.948 0-6.496-.41-28.166 25.5-8.28 9.9-21.378 25.464-29.107 34.587A11040.441 11040.441 0 0 0 414 784.564c-6.875 8.189-14.245 16.813-16.377 19.163L393.745 808h-73.258c-81.556 0-79.43.164-87.523-6.763-4.014-3.436-8.055-10.152-9.356-15.55-.373-1.547-.692-129.903-.709-285.235l-.032-282.423 3.154-5.918c1.735-3.254 4.983-7.387 7.219-9.183 8.613-6.922-5.229-6.4 177.484-6.692 154.33-.248 165.182-.154 164.58 1.414-.434 1.131-.263 1.442.526.955.888-.549 1.173 12.023 1.182 52.086.013 56.655.098 57.754 5.248 67.809 3.225 6.296 7.838 10.729 14.24 13.685 4.986 2.302 5.15 2.309 60.5 2.812l55.5.503.5 45.5c.352 31.992.853 46.287 1.688 48.152.653 1.458 2.868 3.933 4.922 5.5 3.57 2.723 4.207 2.848 14.489 2.848 12.037 0 14.528-1.03 18.401-7.605 1.93-3.276 2.01-5.463 2.281-62.238l.28-58.843-2.39-5.157c-1.959-4.227-12.786-15.557-60.03-62.818C660.938 209.126 635 182.888 635 182.533c0-1.571-22.897-22.654-27.887-25.679l-5.535-3.354-175.039-.098c-96.271-.054-176.614.059-178.539.252m70.75 45.093c6.188.175 16.313.175 22.5 0 6.188-.176 1.125-.319-11.25-.319s-17.437.143-11.25.319m97 .003c17.738.153 46.763.153 64.5 0 17.738-.154 3.225-.279-32.25-.279s-49.987.125-32.25.279m120.449-.006c4.785.183 12.885.184 18 .002 5.116-.182 1.201-.332-8.699-.333-9.9-.001-14.085.148-9.301.331M298.5 302.368c-8.291 3.894-11.5 9.375-11.5 19.64 0 9.179 3.67 15.182 12 19.625 3.352 1.788 7.863 1.867 106.5 1.867h103l4-2.144c5.009-2.684 6.858-4.72 9.423-10.374 5.397-11.897-.835-26.642-12.646-29.922-2.521-.7-37.355-1.047-104.777-1.045l-101 .005-5 2.348m516.57 47.408c-1.921 1.921-3.005 4.303-3.519 7.733-1.01 6.732-4.828 16.58-8.497 21.912-5.517 8.019-12.783 13.261-24.417 17.613-6.023 2.254-7.168 3.249-8.125 7.063-.904 3.603 3.135 8.182 8.679 9.84 15.405 4.606 28.098 17.771 30.783 31.925 2.088 11.003 2.944 13.044 6.172 14.714 6.137 3.173 9.941-.114 11.768-10.169 3.265-17.964 16.019-31.24 35.37-36.816 4.912-1.415 6.034-2.19 7.439-5.137 1.575-3.303 1.56-3.598-.328-6.127-1.091-1.461-3.539-3.195-5.439-3.853-22.216-7.691-33.016-19.283-36.974-39.686-1.173-6.046-5.294-11.788-8.46-11.788-.922 0-2.925 1.249-4.452 2.776m-512.076 63.148c-7.256 2.236-12.923 7.185-14.858 12.975-2.438 7.295-.785 17.458 3.652 22.456.942 1.061 3.962 2.985 6.712 4.277l5 2.348 145.807.01c103.076.007 147.092-.314 150.192-1.094 9.672-2.435 16.354-12.045 15.193-21.849-1.004-8.474-4.864-13.888-12.692-17.798-3.28-1.639-12.725-1.76-150-1.923-80.575-.096-147.628.174-149.006.598m262.212 43.817c3.689.191 9.989.193 14 .002 4.012-.19.994-.347-6.706-.348-7.7-.002-10.982.154-7.294.346M742.5 476.433c-2.75 1.959-9.275 6.702-14.5 10.54-30.393 22.322-111.737 63.867-160.519 81.982-14.43 5.358-19.269 8.514-21.358 13.926-.555 1.441-1.958 7.794-3.117 14.119-4.446 24.265-13.787 63.049-18.897 78.454-1.086 3.275-1.764 6.294-1.507 6.711.257.416 5.805 5.229 12.328 10.695s13.145 11.049 14.715 12.406c1.57 1.358 7.355 6.226 12.855 10.817 5.5 4.592 18.291 15.339 28.425 23.883 10.133 8.544 21.284 17.918 24.78 20.831 3.495 2.913 6.109 5.694 5.809 6.181-.301.486-.02 1.209.624 1.607.731.452.903.291.457-.43-1.303-2.109.538-1.197 4.597 2.277 4.64 3.972 2.441 4.493 22.308-5.282 14.774-7.269 22.713-10.966 40.5-18.859 24.243-10.758 37.535-17.459 40.728-20.532 3.745-3.606 5.341-8.083 8.291-23.259 2.568-13.21 8.596-37.824 13.96-57 2.154-7.7 6.007-21.65 8.563-31 10.139-37.087 17.912-60.72 27.348-83.145 2.999-7.128 5.11-13.655 5.11-15.8 0-7.583-5.054-12.555-12.763-12.555-3.524 0-4.294.536-8.8 6.117-2.715 3.365-6.09 7.527-7.5 9.25-1.41 1.723-7.476 9.208-13.481 16.633l-20.937 25.885c-5.51 6.812-12.044 15.018-14.519 18.236-2.475 3.219-10.8 13.59-18.5 23.046-7.7 9.457-14.333 17.741-14.741 18.408-.407.667.222 3.388 1.398 6.046 3.075 6.952 2.924 16.339-.38 23.554-9.001 19.663-34.262 24.47-49.341 9.391-10.848-10.848-12.427-26.363-3.984-39.16 6.886-10.437 18.329-15.094 32.048-13.044l5 .747 6.703-8.305 18.003-22.304c6.215-7.7 14.664-18.275 18.775-23.5 4.111-5.225 7.734-9.725 8.05-10 .789-.686 39.782-49.281 43.296-53.956 2.592-3.451 2.738-4.089 1.761-7.718-1.571-5.832-5.007-8.58-11.33-9.058-4.74-.358-5.751-.046-10.258 3.165m126.282 6.317c-.841.962-1.846 3.55-2.234 5.75-1.9 10.767-8.403 19.659-17.703 24.207-3.49 1.706-7.143 3.36-8.118 3.675-2.277.736-3.109 2.959-2.306 6.159.49 1.953 2.296 3.294 7.858 5.837 3.971 1.816 8.657 4.516 10.413 6.002 3.888 3.289 8.963 13.138 9.863 19.141.702 4.678 1.607 5.863 5.138 6.726 3.058.747 5.189-1.964 6.72-8.548 2.697-11.604 10.61-20.252 22.494-24.585 4.27-1.557 6.542-3.005 7.29-4.647 1.705-3.741-1.018-6.985-7.085-8.44-6.599-1.583-13.329-5.963-17.045-11.094-1.659-2.289-4.152-7.888-5.541-12.441-2.376-7.791-3.622-9.492-6.953-9.492-.695 0-1.951.788-2.791 1.75m-564.029 41.284c-8.692 1.463-14.652 6.822-16.889 15.186-2.593 9.694 2.145 20.639 10.773 24.886l4.863 2.394h205l4-2.153c7.852-4.225 11.5-10.524 11.5-19.855 0-9.52-5.293-16.891-14.285-19.894-4.263-1.424-15.436-1.585-102.5-1.48-53.743.064-99.851.477-102.462.916M524.75 853.747c7.288.171 19.212.171 26.5 0 7.288-.17 1.325-.31-13.25-.31s-20.538.14-13.25.31"/></svg>